<?xml version="1.0" encoding="UTF-8" standalone="no"?>
<!-- Created with Inkscape (http://www.inkscape.org/) -->

<svg
   width="429.07468mm"
   height="99.433891mm"
   viewBox="0 0 429.07468 99.433891"
   version="1.1"
   id="svg1"
   xml:space="preserve"
   xmlns:inkscape="http://www.inkscape.org/namespaces/inkscape"
   xmlns:sodipodi="http://sodipodi.sourceforge.net/DTD/sodipodi-0.dtd"
   xmlns="http://www.w3.org/2000/svg"
   xmlns:svg="http://www.w3.org/2000/svg"><sodipodi:namedview
     id="namedview1"
     pagecolor="#ffffff"
     bordercolor="#000000"
     borderopacity="0.25"
     inkscape:showpageshadow="2"
     inkscape:pageopacity="0.0"
     inkscape:pagecheckerboard="0"
     inkscape:deskcolor="#d1d1d1"
     inkscape:document-units="mm" /><defs
     id="defs1" /><g
     inkscape:label="Layer 1"
     inkscape:groupmode="layer"
     id="layer1"
     transform="translate(31.996495,-413.35018)"><path
       style="fill:#f9f9f9"
       d="m 6.9302306,512.64455 c -11.322213,-1.39089 -19.6036246,-5.35185 -26.6328826,-12.7384 -6.149918,-6.46251 -9.889387,-14.8443 -11.649152,-26.11085 -0.798381,-5.11147 -0.871143,-17.48541 -0.129134,-21.96041 1.859171,-11.21253 5.92038,-19.59632 12.878876,-26.58662 6.608425,-6.63864 14.8831206,-10.44858 25.2677126,-11.63407 3.0632,-0.3497 10.8137704,-0.35262 14.5520804,-0.005 8.87332,0.82395 16.65524,3.17225 19.54552,5.89814 l 0.95969,0.9051 -0.004,2.6146 c -0.004,2.83501 -0.35399,4.6804 -1.62379,8.56771 -1.57648,4.82615 -3.81534,8.71226 -6.26069,10.86702 -2.41041,2.12397 -3.0071,2.17736 -5.61693,0.50264 -0.6821,-0.4377 -2.298,-1.15446 -3.59087,-1.59279 -7.54231,-2.55713 -14.40105,-1.98568 -19.8415564,1.65316 -3.93838003,2.63415 -6.232151,6.43108 -7.560311,12.51476 -0.554615,2.54044 -0.464647,11.61923 0.142896,14.41979 1.039083,4.78981 2.70069797,7.95993 5.808118,11.08106 3.226573,3.2408 6.537923,4.75573 10.8980834,4.98583 3.51783,0.18565 5.72128,-0.33644 6.94531,-1.64564 l 0.8599,-0.91972 v -3.70806 -3.70805 h -4.23333 -4.23334 v -7.271 -7.271 l 0.59531,-0.1339 c 0.32743,-0.0736 1.96983,-0.31728 3.6498,-0.54143 6.91524,-0.92263 15.75813,-0.92718 20.48872,-0.0106 2.3104,0.44769 4.76168,1.51139 5.14848,2.23413 0.15132,0.28276 0.15442,6.56156 0.008,16.31783 -0.13086,8.72202 -0.24223,18.54797 -0.24747,21.83544 l -0.01,5.97722 -1.25677,0.67567 c -3.68077,1.97887 -12.52708,4.02078 -20.30678,4.68723 -2.95466,0.25311 -12.7589904,0.32093 -14.5520804,0.10065 z m 83.6764404,-0.21366 c -9.58515,-1.36437 -17.10254,-5.08592 -23.7572,-11.76121 -5.84282,-5.86093 -9.09291,-11.92143 -11.21951,-20.92125 -1.31691,-5.57321 -1.59699,-8.52861 -1.59219,-16.80104 0.006,-9.74422 0.6177,-14.34019 2.79881,-21.01686 2.19415,-6.71659 4.85614,-11.20696 9.46738,-15.97002 6.68287,-6.9029 14.86967,-10.91678 24.99901,-12.25669 4.74416,-0.62755 12.905519,-0.37498 17.232259,0.53329 8.64212,1.81416 14.94903,5.15305 20.76608,10.99358 3.34837,3.36188 4.97783,5.61416 7.07767,9.78289 6.60784,13.11832 7.49307,36.02704 1.99294,51.57515 -1.84941,5.22804 -5.02471,10.25288 -8.96008,14.17915 -6.08192,6.06785 -13.14001,9.62081 -22.73369,11.4439 -2.98689,0.5676 -12.693559,0.69993 -16.071479,0.21911 z m 10.171479,-26.88943 c 5.11972,-1.06766 9.39115,-5.50313 11.31174,-11.74616 0.88541,-2.87813 1.33202,-6.51524 1.33202,-10.84791 0,-4.33268 -0.44661,-7.96978 -1.33202,-10.84792 -2.04207,-6.63793 -6.88381,-11.34029 -12.375089,-12.01884 -6.1798,-0.76364 -11.5249,2.45024 -14.56523,8.75772 -1.6351,3.39218 -2.32844,6.15465 -2.72115,10.84179 -0.6924,8.26407 0.92938,15.90267 4.35573,20.51556 3.32316,4.47397 8.5676,6.47736 13.993999,5.34576 z m 175.36563,27.11073 c -0.3638,-0.0534 -1.55443,-0.22349 -2.64583,-0.37797 -6.07332,-0.85962 -11.92339,-3.11049 -17.21202,-6.62249 -3.3333,-2.21353 -8.32897,-7.20875 -10.54146,-10.54052 -4.10626,-6.18355 -6.59965,-13.5078 -7.75198,-22.77112 -0.5149,-4.13923 -0.43394,-15.68351 0.13917,-19.84374 1.16079,-8.42618 3.64495,-15.51177 7.47359,-21.31698 2.02141,-3.06497 7.11914,-8.18285 10.29791,-10.33858 4.20178,-2.84952 8.66936,-4.86819 13.35425,-6.03409 4.79504,-1.19332 6.20152,-1.33693 12.97179,-1.32444 5.98936,0.011 6.73379,0.0655 9.78958,0.71637 9.16912,1.95292 15.61317,5.42011 21.57243,11.60694 6.34184,6.58402 10.01718,15.33178 11.54753,27.48453 0.53149,4.22069 0.44455,16.73772 -0.14426,20.76979 -2.26288,15.49569 -7.77749,25.03691 -18.49729,32.00351 -5.36911,3.48929 -11.50217,5.61626 -18.7048,6.48692 -2.08173,0.25165 -10.14771,0.32218 -11.64861,0.10187 z m 9.01732,-27.3034 c 4.55541,-1.18917 8.48444,-5.26865 10.30433,-10.69893 1.13851,-3.39715 1.60034,-6.74833 1.60245,-11.62801 0.003,-7.64065 -1.05914,-12.11416 -3.89308,-16.39215 -5.62881,-8.49699 -16.58569,-8.95026 -22.49566,-0.93063 -3.3324,4.52196 -4.61215,9.34462 -4.61215,17.38061 0,8.93015 1.78914,14.6903 5.82545,18.75513 3.48444,3.50906 8.35067,4.79779 13.26866,3.51398 z m 70.69306,26.4218 c -2.87247,-0.32597 -4.51288,-0.78852 -5.37793,-1.51641 l -0.77828,-0.65488 v -34.90148 -34.90147 h -8.57155 -8.57155 l -0.81411,-0.92722 c -1.50296,-1.71178 -2.22088,-5.51745 -2.22088,-11.77278 0,-6.11966 0.71734,-9.92663 2.20658,-11.71059 l 0.71553,-0.85712 30.52226,-0.0641 c 23.88817,-0.0501 30.66603,0.007 31.18372,0.26459 1.80617,0.89737 2.92374,5.57252 2.9302,12.25802 0.006,6.49338 -0.85527,10.80642 -2.42196,12.12471 l -0.81342,0.68445 h -8.31311 -8.3131 l -0.0671,35.10861 -0.0671,35.10861 -0.83179,0.48578 c -1.7365,1.01416 -4.12814,1.30589 -11.47134,1.39925 -3.8563,0.049 -7.87257,-0.009 -8.92504,-0.12801 z m -197.792,-0.69877 c -1.57455,-0.48395 -3.12935,-1.98643 -3.56692,-3.4469 -0.25036,-0.83563 -0.32438,-10.92087 -0.32438,-44.19719 0,-47.38586 -0.0933,-44.6699 1.60549,-46.72396 0.45482,-0.54992 1.32144,-1.2643 1.92583,-1.5875 1.08311,-0.57919 1.27552,-0.58882 13.40201,-0.67016 13.27879,-0.0891 19.2392,0.1633 24.3475,1.03091 16.74159,2.84343 27.16975,12.17225 31.05848,27.78428 2.52884,10.15251 2.53664,24.83758 0.0192,36.09807 -2.07028,9.26018 -5.47412,15.88792 -10.93909,21.29989 -4.06494,4.02552 -8.08073,6.48025 -13.62205,8.32674 -6.61064,2.2028 -10.16319,2.51701 -28.19797,2.494 -11.92915,-0.0152 -14.66048,-0.0862 -15.70806,-0.40818 z m 29.42158,-24.85163 c 5.133,-1.20993 8.73915,-5.18728 10.30584,-11.36669 0.95953,-3.78458 1.22491,-6.62636 1.21072,-12.96445 -0.0241,-10.74549 -1.45445,-15.4579 -5.53881,-18.24779 -2.47557,-1.69097 -6.80021,-2.78658 -10.99936,-2.78658 h -1.56835 v 22.07548 c 0,13.19062 0.10044,22.33967 0.24956,22.73187 0.13725,0.36102 0.46468,0.71215 0.7276,0.78029 1.05097,0.27237 4.01208,0.15519 5.6128,-0.22213 z"
       id="path4"
       sodipodi:nodetypes="cssssscsccsssssssssscccccccsssssccssccssscsssssssssssssssssssssssssssssssssssssscssssssscccccssscsccscccccssssssssssssssssssssssscssss"
       inkscape:export-filename="godot.svg"
       inkscape:export-xdpi="96"
       inkscape:export-ydpi="96" /></g></svg>
