<?xml version="1.0" encoding="UTF-8" standalone="no"?>
<!-- Created with Inkscape (http://www.inkscape.org/) -->

<svg
   width="157.03192mm"
   height="215.04276mm"
   viewBox="0 0 157.03192 215.04276"
   version="1.1"
   id="svg1"
   xml:space="preserve"
   xmlns="http://www.w3.org/2000/svg"
   xmlns:svg="http://www.w3.org/2000/svg"><defs
     id="defs1" /><g
     id="layer1"
     transform="translate(323.41837,-592.8054)"><path
       id="path21"
       style="fill:none;stroke:#ffffff;stroke-width:5;stroke-dasharray:none;stroke-opacity:1"
       d="m -223.5569,595.36573 c -0.0677,0.0678 0.12884,1.17028 0.43667,2.44998 0.30782,1.27969 0.67971,3.3356 0.82631,4.56871 0.37198,3.12896 0.3564,53.19372 -0.0176,56.54745 -0.35148,3.15208 -1.25465,6.77163 -2.34043,9.37979 -1.60045,3.84447 -4.46998,7.68831 -7.51479,10.30997 v 43.42525 c 0,6.12347 -4.93012,11.05359 -11.05359,11.05359 h -3.57859 c -6.12344,0 -11.05307,-4.93012 -11.05307,-11.05359 v -11.12542 h -63.06437 c 5e-4,13.23851 0.0453,22.99285 0.17984,25.08426 0.6734,10.4528 2.93828,19.04313 7.42848,28.17813 7.08624,14.41634 18.72718,26.16593 33.02228,33.33026 8.59513,4.30767 16.73046,6.62732 26.77304,7.63468 2.9193,0.29283 16.04867,0.143 19.18384,-0.21911 9.43894,-1.09018 17.50699,-3.53564 25.71058,-7.79281 22.3715,-11.60948 37.16454,-33.602 39.51696,-58.7499 0.19277,-2.06451 0.25439,-15.37664 0.19069,-41.40729 -0.0842,-34.42002 -0.13979,-38.64466 -0.5395,-41.09052 -1.43197,-8.7623 -4.14831,-17.06482 -7.80831,-23.86469 -9.18603,-17.06666 -24.51585,-29.85786 -42.7824,-35.69756 -1.866,-0.59654 -3.44827,-1.02888 -3.51607,-0.96118 z" /><path
       id="rect25"
       style="fill:#ffffff;fill-opacity:1;stroke:#ffffff;stroke-width:5;stroke-dasharray:none;stroke-opacity:1;paint-order:stroke fill markers"
       d="m -266.06348,595.39312 c -0.21401,-0.16239 -1.19977,0.1424 -4.43487,1.21646 -7.92811,2.63213 -16.02117,7.01415 -22.70146,12.29175 -3.15961,2.49617 -10.07511,9.52479 -12.46797,12.6721 -8.03238,10.5648 -12.64305,21.6615 -14.68903,35.35391 -0.40201,2.69038 -0.4609,2.02915 -0.555,34.06566 -0.012,4.09764 0.002,6.1898 -0.003,9.68934 h 63.06282 v -22.27 c -0.98225,-0.84471 -1.91473,-1.73468 -2.70371,-2.68563 -2.86454,-3.45261 -4.78951,-7.36151 -6.09885,-12.38529 l -0.7488,-2.87424 v -29.76563 -29.76562 l 0.60203,-2.38125 c 0.33129,-1.30969 0.6683,-2.59426 0.7488,-2.85461 0.0454,-0.14673 0.06,-0.25283 -0.0114,-0.30695 z" /><path
       d="m -246.05728,701.4361 c -1.5541,0 -2.80544,1.42648 -2.80544,3.19845 v 14.78071 c 0,1.77197 1.25134,3.19845 2.80544,3.19845 h 2.31191 c 1.5541,0 2.80518,-1.42648 2.80518,-3.19845 v -14.78071 c 0,-1.77197 -1.25108,-3.19845 -2.80518,-3.19845 z"
       style="fill:none;stroke:#ffffff;stroke-width:5;stroke-dasharray:none;stroke-opacity:1"
       id="path1-9" /><path
       d="m -248.55547,601.48677 c -4.91227,0 -8.86676,4.02654 -8.86676,9.0283 v 41.72151 c 0,5.00176 3.95449,9.0283 8.86676,9.0283 h 7.30762 c 4.91226,0 8.86718,-4.02654 8.86718,-9.0283 v -41.72151 c 0,-5.00176 -3.95492,-9.0283 -8.86718,-9.0283 z"
       style="fill:none;stroke:#ffffff;stroke-width:5;stroke-dasharray:none;stroke-opacity:1"
       id="path1-4" /></g></svg>
